<svg width="16" height="12" viewBox="0 0 16 12" fill="none" xmlns="http://www.w3.org/2000/svg">
<path d="M5.79646 0.229762C6.07989 0.54224 6.07989 1.06095 5.80201 1.37968L2.42862 5.18565H15.2831C15.6777 5.18565 16 5.54812 16 5.99809C16 6.44806 15.6777 6.81053 15.2831 6.81053H2.42862L5.80757 10.6165C6.08545 10.9352 6.07989 11.4477 5.80201 11.7664C5.51858 12.0789 5.06843 12.0789 4.78499 11.7602L0.205627 6.57305C0.144495 6.49805 0.0944772 6.41681 0.0555749 6.31682C0.0166725 6.21682 0 6.11058 0 6.00434C0 5.79186 0.0722476 5.59187 0.205627 5.43563L4.78499 0.248511C5.05731 -0.0764649 5.51303 -0.0827146 5.79646 0.229762V0.229762Z" fill="#606D8E"/>
</svg>
