<svg width="411" height="248" viewBox="0 0 411 248" fill="none" xmlns="http://www.w3.org/2000/svg">
<mask id="mask0" mask-type="alpha" maskUnits="userSpaceOnUse" x="0" y="0" width="411" height="248">
<rect width="411" height="248" rx="6" fill="#F96262"/>
</mask>
<g mask="url(#mask0)">
<rect width="411" height="248" fill="url(#paint0_linear)"/>
<g filter="url(#filter0_f)">
<rect x="65" y="116" width="56" height="60" fill="#818181" fill-opacity="0.7"/>
</g>
<g filter="url(#filter1_f)">
<rect x="104" y="109" width="47" height="48" fill="#818181" fill-opacity="0.51"/>
</g>
<mask id="mask1" mask-type="alpha" maskUnits="userSpaceOnUse" x="52" y="75" width="77" height="96">
<path d="M52 82C52 78.134 55.134 75 59 75H129V171H59C55.134 171 52 167.866 52 164V82Z" fill="#E8E8E8"/>
</mask>
<g mask="url(#mask1)">
<rect x="52" y="75" width="77" height="96" fill="#E8E8E8"/>
<path d="M100.222 107.844C100.222 105.125 99.1333 102.664 97.3756 100.884C95.6158 99.1025 93.1853 98 90.5 98C87.8147 98 85.3842 99.1025 83.6244 100.884C81.8667 102.664 80.7778 105.125 80.7778 107.844C80.7778 110.563 81.8667 113.024 83.6244 114.803C85.3842 116.585 87.8147 117.688 90.5 117.688C93.1853 117.688 95.6158 116.585 97.3756 114.803C99.1333 113.024 100.222 110.563 100.222 107.844ZM73 133.875C73 136.938 79.5625 140 90.5 140C100.761 140 108 136.938 108 133.875C108 127.75 101.134 121.625 90.5 121.625C79.5625 121.625 73 127.75 73 133.875Z" fill="#ADBAC1"/>
<g filter="url(#filter2_d)">
<path d="M129 82C129 78.134 125.866 75 122 75H94V151L129 171V82Z" fill="#2A76B4"/>
</g>
</g>
<path d="M171 62C171 58.134 167.866 55 164 55H94V151H164C167.866 151 171 147.866 171 144V62Z" fill="#52A1F5"/>
<path d="M116.922 99.2975C118.384 104.502 127.517 113.683 133.788 115.964L139.457 110.343C140.211 109.63 141.038 109.63 142.592 109.84L151.537 110.718C153.283 110.718 154 111.808 154 113.687V122.4C154 123.626 152.907 125 151.157 125C126.131 125 107.466 106.929 108.012 81.5915C108.043 80.1536 108.766 79 110.194 79H119.153C120.594 79 121.425 79.3752 121.867 80.9717L123.243 90.9379C123.491 92.8972 122.087 94.1121 122.087 94.1121" fill="white"/>
<path d="M194.675 95.572C188.231 95.572 183.875 100.684 183.875 106.948C183.875 113.212 188.195 118.324 194.675 118.324C196.871 118.324 199.823 117.496 201.479 116.02L199.751 112.42C198.599 113.464 196.547 114.22 194.999 114.22C190.787 114.22 188.231 110.98 188.231 106.948C188.231 102.952 190.823 99.676 194.999 99.676C196.547 99.676 198.599 100.432 199.751 101.476L201.479 97.912C199.859 96.4 196.871 95.572 194.675 95.572ZM212.654 99.1C207.218 99.1 203.798 103.672 203.798 108.82C203.798 114.004 207.182 118.54 212.654 118.54C218.09 118.54 221.438 114.004 221.438 108.82C221.438 103.708 218.054 99.1 212.654 99.1ZM212.654 102.7C215.894 102.7 217.082 106.084 217.082 108.82C217.082 111.556 215.93 115.012 212.654 115.012C209.45 115.012 208.154 111.52 208.154 108.82C208.154 106.156 209.522 102.7 212.654 102.7ZM233.799 98.92C231.819 98.92 229.695 100.288 229.047 102.16V99.316H225.015V118H229.047V108.064C229.047 105.904 229.911 103.384 232.503 103.384C235.311 103.384 235.779 105.724 235.779 108.064V118H239.739V106.192C239.739 102.232 238.263 98.92 233.799 98.92ZM251.239 118.324C252.643 118.324 253.795 117.856 254.947 117.064L253.579 114.004C253.111 114.328 252.463 114.616 251.887 114.616C249.727 114.616 249.799 111.988 249.799 110.476V102.808H255.163V99.316H249.799V94.42H245.875V99.316H243.175V102.808H245.875V111.736C245.875 115.12 247.495 118.324 251.239 118.324ZM263.244 105.652C259.824 105.652 256.836 108.352 256.836 111.88C256.836 115.768 259.284 118.36 263.136 118.36C265.044 118.36 267.024 117.64 268.32 116.236C269.184 117.712 270.732 118.324 272.352 118.36L273.792 115.228C271.164 115.264 271.524 110.26 271.524 108.568C271.524 103.744 269.688 98.92 264.072 98.92C261.768 98.92 259.356 99.892 257.736 101.512L259.068 104.428C260.364 103.42 261.984 102.664 263.712 102.664C266.592 102.664 267.492 104.536 267.636 107.056C266.376 106.192 264.684 105.652 263.244 105.652ZM264 108.892C265.224 108.892 266.808 109.324 267.672 110.188L267.744 113.356C266.88 114.364 265.332 115.012 264 115.012C262.164 115.012 260.76 113.788 260.76 111.988C260.76 110.332 262.344 108.892 264 108.892ZM275.622 108.604C275.622 113.788 279.078 118.36 284.514 118.36C286.854 118.36 289.554 117.244 291.102 115.48L289.662 112.636C288.546 113.752 286.746 114.4 285.198 114.4C282.066 114.4 279.798 111.628 279.798 108.64C279.798 105.508 282.174 102.736 285.378 102.736C286.854 102.736 288.654 103.312 289.662 104.428L291.102 101.62C289.662 99.892 286.926 98.956 284.73 98.956C279.186 98.956 275.622 103.276 275.622 108.604ZM301.161 118.324C302.565 118.324 303.717 117.856 304.869 117.064L303.501 114.004C303.033 114.328 302.385 114.616 301.809 114.616C299.649 114.616 299.721 111.988 299.721 110.476V102.808H305.085V99.316H299.721V94.42H295.797V99.316H293.097V102.808H295.797V111.736C295.797 115.12 297.417 118.324 301.161 118.324ZM321.014 112.348C321.014 106.588 312.806 107.488 312.806 104.5C312.806 103.096 314.498 102.484 315.722 102.484C316.91 102.484 318.494 102.88 319.43 103.672L320.726 100.828C319.502 99.424 316.802 98.92 315.038 98.92C311.618 98.92 308.45 100.792 308.45 104.536C308.45 110.476 316.55 109.36 316.55 112.348C316.55 113.932 315.002 114.652 313.562 114.652C312.014 114.652 310.214 113.86 308.99 112.96L307.334 116.452C309.134 117.712 311.942 118.36 314.102 118.36C317.702 118.36 321.014 116.272 321.014 112.348ZM348.345 102.16C348.345 97.444 344.601 95.716 341.001 95.716C338.589 95.716 335.961 96.508 334.125 98.056L335.565 101.224C336.897 100.252 338.589 99.46 340.317 99.46C341.973 99.46 344.097 100.288 344.097 102.196C344.097 106.12 333.981 109.504 333.981 115.984V118H348.849V114.148H339.273C340.209 110.224 348.345 107.632 348.345 102.16ZM358.227 115.48C358.227 113.896 356.931 112.564 355.311 112.564C353.727 112.564 352.431 113.896 352.431 115.48C352.431 117.064 353.727 118.36 355.311 118.36C356.895 118.36 358.227 117.064 358.227 115.48ZM370.754 95.608C364.67 95.608 361.79 101.656 361.79 106.984C361.79 112.42 364.562 118.36 370.754 118.36C376.91 118.36 379.61 112.384 379.61 106.984C379.61 101.656 376.838 95.608 370.754 95.608ZM370.754 99.388C374.57 99.388 375.578 103.96 375.578 106.984C375.578 110.116 374.714 114.652 370.754 114.652C366.83 114.652 365.858 110.08 365.858 106.984C365.858 103.924 366.902 99.388 370.754 99.388Z" fill="#474747"/>
</g>
<defs>
<filter id="filter0_f" x="49" y="100" width="88" height="92" filterUnits="userSpaceOnUse" color-interpolation-filters="sRGB">
<feFlood flood-opacity="0" result="BackgroundImageFix"/>
<feBlend mode="normal" in="SourceGraphic" in2="BackgroundImageFix" result="shape"/>
<feGaussianBlur stdDeviation="8" result="effect1_foregroundBlur"/>
</filter>
<filter id="filter1_f" x="64" y="69" width="127" height="128" filterUnits="userSpaceOnUse" color-interpolation-filters="sRGB">
<feFlood flood-opacity="0" result="BackgroundImageFix"/>
<feBlend mode="normal" in="SourceGraphic" in2="BackgroundImageFix" result="shape"/>
<feGaussianBlur stdDeviation="20" result="effect1_foregroundBlur"/>
</filter>
<filter id="filter2_d" x="74" y="65" width="63" height="124" filterUnits="userSpaceOnUse" color-interpolation-filters="sRGB">
<feFlood flood-opacity="0" result="BackgroundImageFix"/>
<feColorMatrix in="SourceAlpha" type="matrix" values="0 0 0 0 0 0 0 0 0 0 0 0 0 0 0 0 0 0 127 0"/>
<feOffset dx="-6" dy="4"/>
<feGaussianBlur stdDeviation="7"/>
<feColorMatrix type="matrix" values="0 0 0 0 0 0 0 0 0 0 0 0 0 0 0 0 0 0 0.25 0"/>
<feBlend mode="normal" in2="BackgroundImageFix" result="effect1_dropShadow"/>
<feBlend mode="normal" in="SourceGraphic" in2="effect1_dropShadow" result="shape"/>
</filter>
<linearGradient id="paint0_linear" x1="205.5" y1="0" x2="205" y2="248" gradientUnits="userSpaceOnUse">
<stop stop-color="white"/>
<stop offset="1" stop-color="#BDDDFF"/>
</linearGradient>
</defs>
</svg>
