<svg width="411" height="248" viewBox="0 0 411 248" fill="none" xmlns="http://www.w3.org/2000/svg">
<mask id="mask0" mask-type="alpha" maskUnits="userSpaceOnUse" x="0" y="0" width="411" height="248">
<rect width="411" height="248" rx="6" fill="#F96262"/>
</mask>
<g mask="url(#mask0)">
<rect x="-4" width="415" height="248" fill="url(#paint0_linear)"/>
<path d="M35.5 139.964C25.4542 147.506 5.08246 154.607 -4.22712 142.206C-13.5367 129.805 -1.03122 112.225 9.0146 104.684C19.0604 97.1424 39.4322 90.0411 48.7417 102.442C58.0513 114.843 45.5458 132.423 35.5 139.964V139.964ZM165.823 263.009C150.49 274.519 133.089 285.177 113.846 288.876C63.3514 298.299 26.6175 247.565 -0.300937 211.708C-27.6523 175.274 -68.7865 123.183 -45.7522 76.28C-37.0812 58.7981 -22.7114 43.8019 -7.37829 32.2912C12.7614 17.1721 36.8112 9.56419 62.1995 11.2476C67.9176 3.04694 74.9945 -4.1446 82.8774 -10.0623C93.2116 -17.8203 100.171 -19.3621 113.044 -21.736C129.39 0.0379578 135.528 17.2247 134.999 43.5501C148.78 54.9995 161.023 68.2046 171.812 82.5763C181.554 95.5542 189.975 109.675 196.401 124.541C221.503 131.249 236.053 142.121 252.218 163.655C246.382 175.402 242.923 181.606 232.588 189.364C224.706 195.282 215.933 199.914 206.642 203.055C200.992 227.965 185.963 247.89 165.823 263.009V263.009ZM118.348 250.324C139.449 234.484 148.416 207.686 131.529 185.191C124.709 176.106 116.544 168.633 108.438 160.439C101.956 154.107 96.1473 147.27 90.6265 139.915C85.1418 132.609 80.198 125.123 75.8909 117.083C70.393 107.156 65.4239 97.1335 58.5681 88.0009C41.6809 65.506 13.445 66.6367 -7.65604 82.4774C-49.8581 114.159 -27.3358 157.675 -2.07722 191.322L15.3151 214.489C40.6819 248.28 76.0979 282.042 118.348 250.324V250.324ZM115.027 190.74C105.718 178.339 85.3461 185.44 75.3003 192.981C65.2544 200.523 52.749 218.103 62.0585 230.504C71.3681 242.905 91.7398 235.803 101.786 228.262C111.831 220.72 124.337 203.141 115.027 190.74Z" fill="#009FE3" fill-opacity="0.5"/>
<path d="M349.028 107.985C353.077 116.041 355.502 131.337 345.557 136.336C335.612 141.335 324.783 130.264 320.733 122.207C316.684 114.15 314.259 98.8548 324.204 93.8557C334.15 88.8566 344.978 99.928 349.028 107.985V107.985ZM452.536 31.5703C458.717 43.8671 464.033 57.5165 464.198 71.5819C464.43 108.454 423.914 127.95 395.157 142.405C365.938 157.092 323.904 179.525 293.699 157.284C282.452 148.934 273.686 136.874 267.504 124.577C259.386 108.426 257.071 90.4673 261.49 72.7454C256.424 67.6624 252.244 61.7478 249.066 55.4259C244.9 47.138 244.697 42.0253 244.657 32.6289C262.12 23.8514 275.043 21.7015 293.573 25.4247C303.415 17.1457 314.302 10.1765 325.828 4.3829C336.236 -0.848751 347.283 -5.00126 358.603 -7.64936C366.536 -24.5297 376.068 -33.4255 393.338 -42.1062C400.894 -36.4882 404.837 -33.255 409.003 -24.9672C412.181 -18.6453 414.337 -11.8581 415.374 -4.89496C432.253 2.26612 444.417 15.4186 452.536 31.5703V31.5703ZM437.534 63.4962C429.028 46.5735 411.237 36.8289 393.197 45.8971C385.911 49.5592 379.593 54.377 372.772 59.0608C367.474 62.8345 361.905 66.0685 356.007 69.0331C350.148 71.9784 344.23 74.5185 338.002 76.5384C330.289 79.1596 322.576 81.3948 315.252 85.0763C297.212 94.1445 294.418 114.236 302.924 131.159C319.937 165.004 353.545 154.63 380.529 141.066L399.109 131.726C426.209 118.105 454.566 97.3801 437.534 63.4962V63.4962ZM395.017 58.2611C385.072 63.2602 387.497 78.5558 391.546 86.6123C395.596 94.6689 406.425 105.74 416.37 100.741C426.316 95.7421 423.89 80.4466 419.841 72.39C415.791 64.3334 404.963 53.262 395.017 58.2611Z" fill="#FFA78B" fill-opacity="0.9"/>
<path d="M154.507 119.008C148.603 119.008 144.619 115.312 144.619 109.312C144.619 103.84 149.035 99.616 154.459 99.616C156.571 99.616 159.451 100.72 161.035 102.112L163.291 97.36C160.843 95.104 156.667 94.144 153.355 94.144C144.811 94.144 138.427 100.768 138.427 109.312C138.427 117.952 144.619 124.48 154.507 124.48C158.059 124.48 162.475 122.128 163.291 120.928V108.88H157.675V117.856C156.811 118.672 155.659 119.008 154.507 119.008ZM175.291 93.088C175.291 91.36 173.755 90.016 172.075 90.016C170.347 90.016 168.859 91.36 168.859 93.088C168.859 94.864 170.347 96.208 172.075 96.208C173.755 96.208 175.291 94.864 175.291 93.088ZM174.715 99.088H169.387V124H174.715V99.088ZM190.417 124.432C192.289 124.432 193.825 123.808 195.361 122.752L193.537 118.672C192.913 119.104 192.049 119.488 191.281 119.488C188.401 119.488 188.497 115.984 188.497 113.968V103.744H195.649V99.088H188.497V92.56H183.265V99.088H179.665V103.744H183.265V115.648C183.265 120.16 185.425 124.432 190.417 124.432ZM210.383 98.56C207.791 98.56 204.911 100.384 204.047 102.88V90.4H198.671V124H204.047V110.752C204.047 107.872 205.247 104.512 208.655 104.512C212.399 104.512 213.023 107.632 213.023 110.752V124H218.303V108.256C218.303 103.072 216.239 98.56 210.383 98.56ZM232.567 124.528C235.159 124.528 238.039 122.704 238.951 120.208V124H244.279V99.088H238.951L238.903 112.624C238.903 115.552 237.655 118.864 234.199 118.864C230.503 118.864 229.927 115.744 229.927 112.624V99.088H224.551V114.208C224.551 119.488 226.423 124.528 232.567 124.528ZM273.193 111.376C273.193 105.28 269.785 98.608 262.873 98.608C260.761 98.608 257.881 99.28 256.345 100.912V90.4H251.161V124H256.345V121.936C258.361 123.664 259.801 124.48 262.537 124.48C269.401 124.48 273.193 117.52 273.193 111.376ZM267.625 111.328C267.625 115.168 265.465 119.2 261.145 119.2C259.321 119.2 257.449 118.336 256.345 116.848V105.76C257.209 104.416 259.417 103.552 261.001 103.552C265.225 103.552 267.625 107.44 267.625 111.328ZM161.05 146.752V142H171.922V137.968H156.802V160H161.05V150.784H169.078V146.752H161.05ZM180.119 136.816C180.119 135.52 178.967 134.512 177.707 134.512C176.411 134.512 175.295 135.52 175.295 136.816C175.295 138.148 176.411 139.156 177.707 139.156C178.967 139.156 180.119 138.148 180.119 136.816ZM179.687 141.316H175.691V160H179.687V141.316ZM194.379 140.92C192.399 140.92 190.275 142.288 189.627 144.16V141.316H185.595V160H189.627V150.064C189.627 147.904 190.491 145.384 193.083 145.384C195.891 145.384 196.359 147.724 196.359 150.064V160H200.319V148.192C200.319 144.232 198.843 140.92 194.379 140.92ZM204.069 150.532C204.069 155.14 206.985 160.36 212.097 160.36C214.041 160.36 215.301 159.748 216.705 158.452V160H220.629V134.8H216.705V142.648C215.769 141.496 213.861 140.884 212.421 140.884C206.697 140.884 204.069 145.276 204.069 150.532ZM208.605 150.496C208.605 147.724 210.189 144.916 213.249 144.916C214.401 144.916 216.093 145.528 216.705 146.572V154.852C215.949 155.896 214.545 156.616 213.249 156.616C209.901 156.616 208.569 153.376 208.605 150.496ZM232.528 140.92C227.056 140.92 224.284 145.456 224.284 150.496C224.284 155.824 227.704 160.36 233.32 160.36C235.552 160.36 238.432 159.46 239.8 157.624L238.252 154.6C237.136 155.968 235.12 156.76 233.392 156.76C230.368 156.76 228.388 154.312 228.388 151.432H240.016C240.052 150.676 240.052 149.884 240.052 149.128C240.052 144.52 237.352 140.92 232.528 140.92ZM232.528 144.448C234.868 144.448 236.344 146.104 236.308 148.264H228.568C228.568 146.104 230.26 144.448 232.528 144.448ZM252.54 145.384C253.116 145.384 253.656 145.528 254.196 145.744L256.212 141.496C255.24 141.208 254.484 140.956 253.512 140.956C251.568 140.956 249.372 142.288 248.724 144.16V141.316H244.728V160H248.724V150.568C248.724 148.084 249.588 145.384 252.54 145.384Z" fill="white"/>
</g>
<defs>
<linearGradient id="paint0_linear" x1="332" y1="23.5" x2="-3.99999" y2="322.5" gradientUnits="userSpaceOnUse">
<stop stop-color="#5599FF"/>
<stop offset="1" stop-color="#B7FFF2"/>
</linearGradient>
</defs>
</svg>
