<svg width="30" height="30" viewBox="0 0 30 30" fill="none" xmlns="http://www.w3.org/2000/svg">
<g clip-path="url(#clip0)">
<path d="M15 2.701C19.008 2.701 19.4825 2.7185 21.0585 2.789C22.5235 2.8535 23.3145 3.0995 23.8415 3.3045C24.539 3.574 25.0425 3.902 25.564 4.4235C26.0915 4.951 26.4135 5.449 26.689 6.146C26.894 6.6735 27.14 7.47 27.2045 8.929C27.275 10.511 27.2925 10.9855 27.2925 14.9875C27.2925 18.9895 27.275 19.47 27.2045 21.046C27.14 22.511 26.894 23.302 26.689 23.829C26.4195 24.5265 26.0915 25.03 25.57 25.5515C25.0425 26.079 24.5445 26.401 23.8475 26.6765C23.32 26.8815 22.5235 27.1275 21.0645 27.192C19.4825 27.2625 19.008 27.28 15.006 27.28C11.004 27.28 10.5235 27.2625 8.9475 27.192C7.4825 27.1275 6.6915 26.8815 6.1645 26.6765C5.467 26.407 4.9635 26.079 4.442 25.5575C3.9145 25.03 3.5925 24.532 3.317 23.835C3.112 23.3075 2.866 22.511 2.8015 21.052C2.731 19.47 2.7135 18.9955 2.7135 14.9935C2.7135 10.9915 2.731 10.511 2.8015 8.935C2.866 7.47 3.112 6.679 3.317 6.152C3.5865 5.4545 3.9145 4.951 4.436 4.4295C4.9635 3.902 5.4615 3.58 6.1585 3.3045C6.686 3.0995 7.4825 2.8535 8.9415 2.789C10.5175 2.7185 10.9925 2.701 15 2.701V2.701ZM15 0C10.9275 0 10.418 0.0175 8.8185 0.088C7.2245 0.1585 6.129 0.416 5.18 0.7855C4.19 1.172 3.352 1.682 2.52 2.52C1.682 3.352 1.1725 4.19 0.7855 5.1745C0.4165 6.1295 0.1585 7.2195 0.088 8.813C0.0175 10.4185 0 10.928 0 15.0005C0 19.073 0.0175 19.5825 0.088 21.182C0.1585 22.776 0.416 23.8715 0.7855 24.8205C1.172 25.8105 1.682 26.6485 2.52 27.4805C3.352 28.3125 4.19 28.828 5.1745 29.209C6.1295 29.578 7.2195 29.836 8.813 29.9065C10.4125 29.977 10.9225 29.9945 14.9945 29.9945C19.0665 29.9945 19.5765 29.977 21.176 29.9065C22.7695 29.836 23.8655 29.5785 24.8145 29.209C25.799 28.828 26.637 28.3125 27.469 27.4805C28.301 26.6485 28.8165 25.8105 29.1975 24.826C29.5665 23.871 29.8245 22.781 29.895 21.1875C29.9655 19.588 29.983 19.078 29.983 15.006C29.983 10.934 29.9655 10.424 29.895 8.8245C29.8245 7.2305 29.567 6.135 29.1975 5.186C28.8285 4.19 28.3185 3.352 27.4805 2.52C26.6485 1.688 25.8105 1.1725 24.826 0.7915C23.871 0.4225 22.781 0.1645 21.1875 0.094C19.582 0.018 19.0725 0 15 0V0Z" fill="black"/>
<path d="M15 7.29504C10.746 7.29504 7.29504 10.746 7.29504 15C7.29504 19.254 10.746 22.705 15 22.705C19.254 22.705 22.705 19.254 22.705 15C22.705 10.746 19.254 7.29504 15 7.29504V7.29504ZM15 19.998C12.24 19.998 10.002 17.7595 10.002 15C10.002 12.2405 12.2405 10.002 15 10.002C17.76 10.002 19.998 12.2405 19.998 15C19.998 17.7595 17.7595 19.998 15 19.998Z" fill="black"/>
<path d="M24.8084 6.99004C24.8084 7.98354 24.0029 8.78904 23.0094 8.78904C22.0159 8.78904 21.2104 7.98354 21.2104 6.99004C21.2104 5.99654 22.0159 5.19104 23.0094 5.19104C24.0029 5.19104 24.8084 5.99654 24.8084 6.99004Z" fill="black"/>
</g>
<defs>
<clipPath id="clip0">
<rect width="30" height="30" fill="white"/>
</clipPath>
</defs>
</svg>
