<svg width="34" height="34" viewBox="0 0 34 34" fill="none" xmlns="http://www.w3.org/2000/svg">
<path d="M29.58 4.39029C28.5416 3.35187 27.2921 2.83337 25.8301 2.83337H8.14021C6.67821 2.83337 5.42871 3.35187 4.39029 4.39029C3.35187 5.42871 2.83337 6.67821 2.83337 8.14021V25.8301C2.83337 27.2921 3.35187 28.5416 4.39029 29.58C5.42871 30.6185 6.67821 31.137 8.14021 31.137H12.2684C12.5375 31.137 12.7401 31.127 12.8761 31.1086C13.0344 31.0769 13.1772 30.9925 13.2813 30.8692C13.4159 30.7275 13.4839 30.5221 13.4839 30.253L13.474 28.9992C13.4683 28.2002 13.4655 27.5684 13.4655 27.1009L13.0405 27.1745C12.7713 27.2241 12.4313 27.2454 12.019 27.2397C11.5893 27.2318 11.161 27.1887 10.7384 27.1108C10.2884 27.0277 9.8649 26.8383 9.50304 26.5583C9.12407 26.2716 8.84142 25.8763 8.69271 25.425L8.50854 25C8.35331 24.6647 8.1583 24.3494 7.92771 24.0607C7.66421 23.7165 7.39646 23.4841 7.12587 23.3609L6.99837 23.2688C6.90947 23.2051 6.8286 23.1309 6.75754 23.0478C6.68967 22.9706 6.6338 22.8837 6.59179 22.79C6.55496 22.7035 6.58612 22.6327 6.68387 22.5775C6.78304 22.5208 6.96012 22.4939 7.21937 22.4939L7.58771 22.5505C7.83279 22.5987 8.13737 22.746 8.49862 22.9911C8.86421 23.2404 9.1696 23.568 9.39254 23.9502C9.67587 24.4531 10.0159 24.837 10.4154 25.102C10.8149 25.3655 11.2172 25.4986 11.6224 25.4986C12.0275 25.4986 12.3775 25.4675 12.6735 25.4065C12.9599 25.3473 13.2381 25.2541 13.5023 25.1289C13.6128 24.3072 13.9131 23.6725 14.4047 23.2305C13.7677 23.1681 13.1364 23.0573 12.5163 22.899C11.9111 22.7328 11.329 22.4915 10.7837 22.1808C10.2131 21.8702 9.70917 21.4504 9.30046 20.9455C8.90804 20.4539 8.58504 19.8093 8.33287 19.0117C8.08212 18.2127 7.95604 17.2905 7.95604 16.2464C7.95604 14.7603 8.44054 13.4952 9.41096 12.4497C8.95762 11.3334 9.00012 10.0796 9.53987 8.69271C9.89687 8.58079 10.4253 8.66437 11.1251 8.94062C11.825 9.21687 12.3378 9.45346 12.6636 9.64896C12.9895 9.84729 13.2501 10.013 13.447 10.1476C14.5988 9.82711 15.789 9.666 16.9845 9.66879C18.2014 9.66879 19.38 9.82887 20.5233 10.1476L21.2231 9.70562C21.7614 9.38241 22.3292 9.11108 22.9189 8.89529C23.5705 8.64879 24.0664 8.58221 24.412 8.69271C24.9645 10.081 25.0127 11.3334 24.558 12.4511C25.5284 13.4952 26.0143 14.7603 26.0143 16.2478C26.0143 17.2919 25.8882 18.217 25.636 19.0202C25.3853 19.8249 25.0595 20.4695 24.66 20.9554C24.2605 21.4413 23.7632 21.8479 23.1682 22.1808C22.5732 22.5123 21.9952 22.7517 21.4356 22.899C20.8155 23.0578 20.1842 23.1691 19.5472 23.232C20.1847 23.7845 20.5049 24.6557 20.5049 25.8471V30.253C20.5049 30.4612 20.5346 30.6298 20.597 30.7587C20.6256 30.8208 20.6665 30.8765 20.7171 30.9225C20.7677 30.9685 20.8271 31.0039 20.8916 31.0265C21.0276 31.0746 21.1466 31.1058 21.2515 31.1171C21.3563 31.1313 21.5065 31.1355 21.702 31.1355H25.8301C27.2921 31.1355 28.5416 30.617 29.58 29.5786C30.617 28.5416 31.137 27.2907 31.137 25.8287V8.14021C31.137 6.67821 30.617 5.42871 29.5786 4.39029H29.58Z" fill="black"/>
</svg>
