<?xml version="1.0" encoding="utf-8"?>
<!-- Generator: Adobe Illustrator 23.0.3, SVG Export Plug-In . SVG Version: 6.00 Build 0)  -->
<svg version="1.1" id="Layer_1" xmlns="http://www.w3.org/2000/svg" xmlns:xlink="http://www.w3.org/1999/xlink" x="0px" y="0px"
	 viewBox="0 0 27 27" style="enable-background:new 0 0 27 27;" xml:space="preserve">
<style type="text/css">
	.st0{fill-rule:evenodd;clip-rule:evenodd;}
</style>
<g>
	<path d="M2.5,27h16.9c1.4,0,2.5-1.1,2.5-2.5v-2.5h2.5c1.4,0,2.5-1.1,2.5-2.5V2.5C27,1.1,25.9,0,24.5,0L7.6,0C6.2,0,5.1,1.1,5.1,2.5
		v2.5H2.5C1.1,5.1,0,6.2,0,7.6l0,16.9C0,25.9,1.1,27,2.5,27z M7.9,2.5h16.2c0.1,0,0.2,0,0.2,0.1c0.1,0.1,0.1,0.1,0.1,0.2v16.2
		c0,0.1,0,0.2-0.1,0.2c-0.1,0.1-0.1,0.1-0.2,0.1h-2.2V7.6c0-1.4-1.1-2.5-2.5-2.5H7.6V2.8c0-0.1,0-0.2,0.1-0.2
		C7.7,2.6,7.8,2.5,7.9,2.5z M2.8,7.6h16.2c0.1,0,0.2,0,0.2,0.1c0.1,0.1,0.1,0.1,0.1,0.2l0,16.2c0,0.1,0,0.2-0.1,0.2
		c-0.1,0.1-0.1,0.1-0.2,0.1H2.8c-0.1,0-0.2,0-0.2-0.1c-0.1-0.1-0.1-0.1-0.1-0.2V7.9c0-0.1,0-0.2,0.1-0.2S2.8,7.6,2.8,7.6z"/>
	<path class="st0" d="M5.2,16.2c0-0.5,0.4-0.9,0.9-0.9h9.4c0.5,0,0.9,0.4,0.9,0.9c0,0.5-0.4,0.9-0.9,0.9H6.1
		C5.6,17.2,5.2,16.8,5.2,16.2z"/>
	<path class="st0" d="M10.8,21.9c-0.5,0-0.9-0.4-0.9-0.9v-9.4c0-0.5,0.4-0.9,0.9-0.9c0.5,0,0.9,0.4,0.9,0.9V21
		C11.7,21.5,11.3,21.9,10.8,21.9z"/>
</g>
</svg>
